<?xml version="1.0" standalone="no"?><!DOCTYPE svg PUBLIC "-//W3C//DTD SVG 1.1//EN" "http://www.w3.org/Graphics/SVG/1.1/DTD/svg11.dtd"><svg t="1516776034055" class="icon" style="" viewBox="0 0 1024 1024" version="1.1" xmlns="http://www.w3.org/2000/svg" p-id="1551" xmlns:xlink="http://www.w3.org/1999/xlink" width="64" height="64"><defs><style type="text/css"></style></defs><path d="M1017.6 275.2C854.4 192 691.2 105.6 531.2 19.2c-12.8-6.4-22.4-3.2-35.2 3.2C361.6 89.6 230.4 160 99.2 230.4c-32 16-60.8 32-99.2 51.2h1024c-3.2-3.2-6.4-3.2-6.4-6.4zM121.6 384v406.4c0 60.8 0 60.8 64 60.8 38.4 0 41.6-3.2 41.6-38.4V384c0-19.2 3.2-25.6 22.4-22.4 25.6 3.2 25.6-12.8 25.6-32s-6.4-28.8-25.6-28.8H105.6c-19.2 0-28.8 6.4-28.8 28.8 0 19.2 3.2 35.2 25.6 32 19.2-3.2 19.2 6.4 19.2 22.4zM588.8 304h-147.2c-19.2 0-25.6 6.4-25.6 25.6 0 16-3.2 35.2 25.6 32 22.4-3.2 22.4 6.4 22.4 25.6v406.4c0 60.8 0 60.8 57.6 60.8 41.6 0 44.8-3.2 44.8-44.8V384c0-19.2 3.2-25.6 22.4-22.4 22.4 3.2 25.6-9.6 25.6-28.8 0-19.2-3.2-28.8-25.6-28.8zM931.2 304h-150.4c-22.4 0-25.6 12.8-25.6 28.8 0 19.2 3.2 32 25.6 28.8 22.4-3.2 22.4 6.4 22.4 25.6v400c0 73.6 3.2 64 64 64 32 0 38.4-3.2 38.4-38.4V387.2c0-19.2 0-32 25.6-28.8 22.4 3.2 22.4-12.8 22.4-28.8 0-12.8 0-25.6-22.4-25.6zM140.8 876.8c-16 0-44.8-6.4-41.6 19.2 0 22.4 25.6 19.2 44.8 19.2h761.6c12.8-3.2 25.6-3.2 25.6-19.2 0-19.2-16-19.2-28.8-19.2H140.8zM915.2 972.8H134.4c-16 0-35.2-3.2-35.2 19.2 0 19.2 19.2 19.2 35.2 19.2H915.2c9.6-3.2 19.2-6.4 16-19.2 0-12.8-9.6-16-16-19.2zM915.2 924.8H121.6c-9.6 0-19.2 6.4-19.2 16-6.4 12.8 3.2 19.2 12.8 19.2H915.2c9.6-3.2 16-6.4 16-19.2 0-9.6-6.4-12.8-16-16z" fill="#666666" p-id="1552"></path></svg>