<?xml version="1.0" standalone="no"?><!DOCTYPE svg PUBLIC "-//W3C//DTD SVG 1.1//EN" "http://www.w3.org/Graphics/SVG/1.1/DTD/svg11.dtd"><svg t="1516765402113" class="icon" style="" viewBox="0 0 1024 1024" version="1.1" xmlns="http://www.w3.org/2000/svg" p-id="5460" xmlns:xlink="http://www.w3.org/1999/xlink" width="64" height="64"><defs><style type="text/css"></style></defs><path d="M743.556096 102.4 280.418304 102.4c-71.87456 0-130.362368 52.950016-130.362368 118.022144l0 583.181312c0 65.072128 58.487808 117.996544 130.362368 117.996544l463.137792 0c71.90016 0 130.387968-52.92544 130.387968-117.996544L873.944064 220.422144C873.944064 155.350016 815.456256 102.4 743.556096 102.4zM825.065472 220.422144l0 583.181312c0 39.755776-36.584448 72.096768-81.509376 72.096768L280.418304 875.700224c-44.924928 0-81.4848-32.340992-81.4848-72.096768L198.933504 220.396544c0-39.755776 36.559872-72.072192 81.4848-72.072192l463.137792 0C788.481024 148.325376 825.065472 180.665344 825.065472 220.422144z" p-id="5461" fill="#2c2c2c"></path><path d="M705.312768 245.199872 512.243712 438.293504 318.662656 244.712448c-10.290176-10.365952-28.315648-10.315776-38.534144-0.021504-5.172224 5.143552-8.000512 11.997184-8.000512 19.291136 0 7.268352 2.828288 14.121984 7.974912 19.268608l166.31296 166.31296L313.61536 449.563648c-15.025152 0-27.26912 12.243968-27.26912 27.26912 0 15.02208 12.243968 27.266048 27.26912 27.266048l171.359232 0 0 63.121408L313.61536 567.220224c-15.025152 0-27.26912 12.243968-27.26912 27.3152 0 15.025152 12.243968 27.26912 27.26912 27.26912l171.359232 0L484.974592 760.04352c0 15.02208 12.243968 27.266048 27.26912 27.266048s27.26912-12.243968 27.26912-27.266048L539.512832 621.80352l171.359232 0c15.025152 0 27.26912-12.243968 27.26912-27.318272 0-15.02208-12.243968-27.266048-27.26912-27.266048L539.512832 567.2192l0-63.121408 171.359232 0c15.025152 0 27.26912-12.243968 27.26912-27.266048 0-15.025152-12.243968-27.26912-27.26912-27.26912L578.046976 449.562624l165.850112-165.799936c10.63424-10.63424 10.63424-27.928576 0-38.537216C733.602816 234.83392 715.459584 234.909696 705.312768 245.199872z" p-id="5462" fill="#2c2c2c"></path></svg>